<svg width="24" height="24" viewBox="0 0 24 24" fill="none" xmlns="http://www.w3.org/2000/svg">
<mask id="mask0_3416_3507" style="mask-type:luminance" maskUnits="userSpaceOnUse" x="0" y="4" width="24" height="16">
<path d="M24 4H0V20H24V4Z" fill="white"/>
</mask>
<g mask="url(#mask0_3416_3507)">
<path d="M21.2958 15.0511C21.2958 16.6534 20.3569 17.8002 18.7311 18.5646C17.0932 19.3347 14.7976 19.6911 12.2165 19.6911C9.63555 19.6911 7.32419 19.3348 5.67038 18.5642C4.02771 17.7987 3.07617 16.6512 3.07617 15.0511C3.07617 13.4255 4.04978 11.9184 5.6986 10.8037C7.34565 9.69016 9.63857 8.9917 12.186 8.9917C14.7333 8.9917 17.0262 9.69164 18.6734 10.806C20.3223 11.9216 21.2958 13.4287 21.2958 15.0511Z" stroke="white" stroke-width="0.631403"/>
<path d="M2.05778 12.3035C5.23378 14.2385 5.96327 17.4595 6.13614 18.9675C6.16419 19.2196 5.96501 19.438 5.72386 19.438H0.568798C0.561112 19.438 0.557565 19.4369 0.556721 19.4366C0.555749 19.4362 0.555046 19.4358 0.554131 19.4351C0.55178 19.4331 0.546501 19.4271 0.543531 19.4159C0.540561 19.405 0.541941 19.3965 0.543362 19.3927C0.543982 19.391 0.54477 19.3896 0.546121 19.3879C0.547402 19.3864 0.550823 19.3827 0.558649 19.3781C0.558691 19.3781 0.558734 19.3781 0.55879 19.3779L1.4672 18.8429L1.69618 18.708L1.60235 18.4595L1.59665 18.4616C1.60235 18.4595 1.60235 18.4595 1.60235 18.4595L1.60226 18.4592L1.60185 18.4582L1.60012 18.4535L1.59308 18.4347C1.58683 18.4178 1.57754 18.3926 1.56557 18.3598C1.54158 18.2942 1.50684 18.1978 1.46406 18.0757C1.37849 17.8317 1.26098 17.4857 1.13355 17.0787C0.877941 16.2623 0.585577 15.2107 0.428965 14.2478C0.350602 13.7661 0.30783 13.3161 0.317847 12.9341C0.328052 12.5447 0.392493 12.2625 0.496911 12.0881C0.586295 11.9387 0.707238 11.8591 0.917509 11.8619C1.15866 11.865 1.52621 11.9795 2.05778 12.3035Z" fill="white"/>
<path d="M1.60235 18.4595L1.69618 18.708L1.4672 18.8429L0.55879 19.3779C0.558734 19.3781 0.558691 19.3781 0.558649 19.3781C0.550823 19.3827 0.547402 19.3864 0.546121 19.3879C0.54477 19.3896 0.543982 19.391 0.543362 19.3927C0.541941 19.3965 0.540561 19.405 0.543531 19.4159C0.546501 19.4271 0.55178 19.4331 0.554131 19.4351C0.555046 19.4358 0.555749 19.4362 0.556721 19.4366C0.557565 19.4369 0.561112 19.438 0.568798 19.438H5.72386C5.96501 19.438 6.16419 19.2196 6.13614 18.9675C5.96327 17.4595 5.23378 14.2385 2.05778 12.3035C1.52621 11.9795 1.15866 11.865 0.917509 11.8619C0.707238 11.8591 0.586295 11.9387 0.496911 12.0881C0.392493 12.2625 0.328052 12.5447 0.317847 12.9341C0.30783 13.3161 0.350602 13.7661 0.428965 14.2478C0.585577 15.2107 0.877941 16.2623 1.13355 17.0787C1.26098 17.4857 1.37849 17.8317 1.46406 18.0757C1.50684 18.1978 1.54158 18.2942 1.56557 18.3598C1.57754 18.3926 1.58683 18.4178 1.59308 18.4347L1.60012 18.4535L1.60185 18.4582L1.60226 18.4592L1.60235 18.4595ZM1.60235 18.4595L1.59665 18.4616C1.60235 18.4595 1.60235 18.4595 1.60235 18.4595Z" stroke="white" stroke-width="0.631403"/>
<path d="M22.5186 18.469L22.4394 18.7016L22.6455 18.8356L23.4677 19.37L23.4679 19.3703C23.4727 19.3734 23.475 19.3764 23.4771 19.3827C23.4802 19.392 23.4816 19.4071 23.4775 19.4238C23.4761 19.4299 23.4743 19.4345 23.4726 19.438H18.8277C18.6639 19.438 18.4605 19.2555 18.489 18.963C18.6388 17.4536 19.3067 14.226 22.1642 12.2957C22.6443 11.9721 22.9668 11.8648 23.1683 11.8619C23.2617 11.8605 23.3251 11.8816 23.3718 11.9108C23.4202 11.9411 23.4695 11.9918 23.5154 12.0763C23.6117 12.2541 23.6706 12.5412 23.6799 12.9334C23.6892 13.3181 23.6505 13.7701 23.5796 14.2526C23.438 15.2174 23.1736 16.2705 22.9426 17.0872C22.8273 17.4944 22.7211 17.8407 22.6438 18.0849C22.6051 18.2069 22.5737 18.3035 22.552 18.3692C22.5412 18.402 22.5327 18.4272 22.5271 18.4441L22.5208 18.4631L22.5191 18.4676L22.5188 18.4687L22.5186 18.469C22.5186 18.469 22.5186 18.469 22.5405 18.4765L22.5186 18.469Z" fill="white"/>
<path d="M22.5186 18.469L22.4394 18.7016L22.6455 18.8356L23.4677 19.37L23.4679 19.3703C23.4727 19.3734 23.475 19.3764 23.4771 19.3827C23.4802 19.392 23.4816 19.4071 23.4775 19.4238C23.4761 19.4299 23.4743 19.4345 23.4726 19.438H18.8277C18.6639 19.438 18.4605 19.2555 18.489 18.963C18.6388 17.4536 19.3067 14.226 22.1642 12.2957C22.6443 11.9721 22.9668 11.8648 23.1683 11.8619C23.2617 11.8605 23.3251 11.8816 23.3718 11.9108C23.4202 11.9411 23.4695 11.9918 23.5154 12.0763C23.6117 12.2541 23.6706 12.5412 23.6799 12.9334C23.6892 13.3181 23.6505 13.7701 23.5796 14.2526C23.438 15.2174 23.1736 16.2705 22.9426 17.0872C22.8273 17.4944 22.7211 17.8407 22.6438 18.0849C22.6051 18.2069 22.5737 18.3035 22.552 18.3692C22.5412 18.402 22.5327 18.4272 22.5271 18.4441L22.5208 18.4631L22.5191 18.4676L22.5188 18.4687L22.5186 18.469ZM22.5186 18.469C22.5186 18.469 22.5186 18.469 22.5405 18.4765L22.5186 18.469Z" stroke="white" stroke-width="0.631403"/>
<path fill-rule="evenodd" clip-rule="evenodd" d="M20.6645 7.37652C20.6645 5.52127 19.1882 4.01465 17.3701 4.01465C16.3452 4.01465 15.4301 4.49403 14.8261 5.24111C14.0026 5.05435 13.1241 4.94851 12.215 4.94851C11.306 4.94851 10.4275 5.04811 9.60396 5.24111C8.99389 4.49403 8.07878 4.01465 7.05999 4.01465C5.24198 4.01465 3.76562 5.52127 3.76562 7.37652C3.76562 7.98664 3.92424 8.55318 4.19877 9.04501C3.93644 9.61777 3.79613 10.2279 3.79613 10.8629C3.79613 14.1314 7.56634 16.7774 12.215 16.7774C16.8637 16.7774 20.6339 14.1314 20.6339 10.8629C20.6339 10.2279 20.4936 9.61777 20.2313 9.04501C20.5058 8.55318 20.6645 7.98664 20.6645 7.37652ZM8.80553 7.20054C8.80553 8.3352 7.90418 9.25501 6.79231 9.25501C5.68043 9.25501 4.77909 8.3352 4.77909 7.20054C4.77909 6.06588 5.68043 5.14607 6.79231 5.14607C7.90418 5.14607 8.80553 6.06588 8.80553 7.20054ZM7.1497 7.17533C7.1497 7.38163 6.98582 7.54887 6.78366 7.54887C6.58149 7.54887 6.41762 7.38163 6.41762 7.17533C6.41762 6.96903 6.58149 6.80179 6.78366 6.80179C6.98582 6.80179 7.1497 6.96903 7.1497 7.17533ZM17.5484 9.25501C18.6602 9.25501 19.5616 8.3352 19.5616 7.20054C19.5616 6.06588 18.6602 5.14607 17.5484 5.14607C16.4365 5.14607 15.5351 6.06588 15.5351 7.20054C15.5351 8.3352 16.4365 9.25501 17.5484 9.25501ZM17.5353 7.54887C17.7376 7.54887 17.9014 7.38163 17.9014 7.17533C17.9014 6.96903 17.7376 6.80179 17.5353 6.80179C17.3332 6.80179 17.1693 6.96903 17.1693 7.17533C17.1693 7.38163 17.3332 7.54887 17.5353 7.54887Z" fill="white"/>
<mask id="mask1_3416_3507" style="mask-type:luminance" maskUnits="userSpaceOnUse" x="3" y="4" width="18" height="13">
<path fill-rule="evenodd" clip-rule="evenodd" d="M20.6645 7.37652C20.6645 5.52127 19.1882 4.01465 17.3701 4.01465C16.3452 4.01465 15.4301 4.49403 14.8261 5.24111C14.0026 5.05435 13.1241 4.94851 12.215 4.94851C11.306 4.94851 10.4275 5.04811 9.60396 5.24111C8.99389 4.49403 8.07878 4.01465 7.05999 4.01465C5.24198 4.01465 3.76562 5.52127 3.76562 7.37652C3.76562 7.98664 3.92424 8.55318 4.19877 9.04501C3.93644 9.61777 3.79613 10.2279 3.79613 10.8629C3.79613 14.1314 7.56634 16.7774 12.215 16.7774C16.8637 16.7774 20.6339 14.1314 20.6339 10.8629C20.6339 10.2279 20.4936 9.61777 20.2313 9.04501C20.5058 8.55318 20.6645 7.98664 20.6645 7.37652ZM8.80553 7.20054C8.80553 8.3352 7.90418 9.25501 6.79231 9.25501C5.68043 9.25501 4.77909 8.3352 4.77909 7.20054C4.77909 6.06588 5.68043 5.14607 6.79231 5.14607C7.90418 5.14607 8.80553 6.06588 8.80553 7.20054ZM7.1497 7.17533C7.1497 7.38163 6.98582 7.54887 6.78366 7.54887C6.58149 7.54887 6.41762 7.38163 6.41762 7.17533C6.41762 6.96903 6.58149 6.80179 6.78366 6.80179C6.98582 6.80179 7.1497 6.96903 7.1497 7.17533ZM17.5484 9.25501C18.6602 9.25501 19.5616 8.3352 19.5616 7.20054C19.5616 6.06588 18.6602 5.14607 17.5484 5.14607C16.4365 5.14607 15.5351 6.06588 15.5351 7.20054C15.5351 8.3352 16.4365 9.25501 17.5484 9.25501ZM17.5353 7.54887C17.7376 7.54887 17.9014 7.38163 17.9014 7.17533C17.9014 6.96903 17.7376 6.80179 17.5353 6.80179C17.3332 6.80179 17.1693 6.96903 17.1693 7.17533C17.1693 7.38163 17.3332 7.54887 17.5353 7.54887Z" fill="white"/>
</mask>
<g mask="url(#mask1_3416_3507)">
<path d="M14.8266 5.24115L14.687 5.85692L15.0705 5.94388L15.3177 5.6381L14.8266 5.24115ZM9.6045 5.24115L9.11544 5.64053L9.36477 5.94584L9.74856 5.85591L9.6045 5.24115ZM4.19931 9.04505L4.77337 9.30796L4.9067 9.01688L4.75065 8.7373L4.19931 9.04505ZM20.2319 9.04505L19.6805 8.73731L19.5244 9.01688L19.6579 9.30796L20.2319 9.04505ZM17.3706 4.64609C18.8279 4.64609 20.0336 5.85789 20.0336 7.37656H21.2965C21.2965 5.18474 19.5493 3.3833 17.3706 3.3833V4.64609ZM15.3177 5.6381C15.8093 5.02998 16.5481 4.64609 17.3706 4.64609V3.3833C16.1434 3.3833 15.052 3.95816 14.3356 4.8442L15.3177 5.6381ZM12.2156 5.57996C13.0758 5.57996 13.9074 5.68014 14.687 5.85692L14.9662 4.62539C14.0987 4.42865 13.1734 4.31715 12.2156 4.31715V5.57996ZM9.74856 5.85591C10.5224 5.67458 11.3524 5.57996 12.2156 5.57996V4.31715C11.2608 4.31715 10.3338 4.42175 9.46045 4.6264L9.74856 5.85591ZM7.06053 4.64609C7.87586 4.64609 8.61623 5.02918 9.11544 5.64053L10.0936 4.8418C9.37264 3.95896 8.28281 3.3833 7.06053 3.3833V4.64609ZM4.39757 7.37656C4.39757 5.85789 5.60326 4.64609 7.06053 4.64609V3.3833C4.8818 3.3833 3.13477 5.18474 3.13477 7.37656H4.39757ZM4.75065 8.7373C4.52679 8.33627 4.39757 7.87526 4.39757 7.37656H3.13477C3.13477 8.09811 3.32278 8.77017 3.64799 9.35278L4.75065 8.7373ZM4.42808 10.863C4.42808 10.3231 4.54692 9.80239 4.77337 9.30796L3.62525 8.78213C3.32705 9.43323 3.16527 10.1327 3.16527 10.863H4.42808ZM12.2156 16.1459C10.0053 16.1459 8.03085 15.5159 6.62575 14.5291C5.21885 13.5411 4.42808 12.2356 4.42808 10.863H3.16527C3.16527 12.7587 4.2596 14.4105 5.89999 15.5625C7.54217 16.7159 9.77718 17.4087 12.2156 17.4087V16.1459ZM20.0031 10.863C20.0031 12.2356 19.2123 13.5411 17.8054 14.5291C16.4003 15.5159 14.4259 16.1459 12.2156 16.1459V17.4087C14.654 17.4087 16.8891 16.7159 18.5312 15.5625C20.1716 14.4105 21.2659 12.7587 21.2659 10.863H20.0031ZM19.6579 9.30796C19.8842 9.80239 20.0031 10.3231 20.0031 10.863H21.2659C21.2659 10.1327 21.104 9.43323 20.8059 8.78213L19.6579 9.30796ZM20.0336 7.37656C20.0336 7.87526 19.9043 8.33627 19.6805 8.73731L20.7833 9.35278C21.1084 8.77017 21.2965 8.09811 21.2965 7.37656H20.0336ZM6.79286 9.88646C8.26544 9.88646 9.43747 8.67182 9.43747 7.20058H8.17467C8.17467 7.99866 7.54399 8.62365 6.79286 8.62365V9.88646ZM4.14823 7.20058C4.14823 8.67182 5.32026 9.88646 6.79286 9.88646V8.62365C6.04171 8.62365 5.41104 7.99866 5.41104 7.20058H4.14823ZM6.79286 4.51471C5.32026 4.51471 4.14823 5.72935 4.14823 7.20058H5.41104C5.41104 6.4025 6.04171 5.77752 6.79286 5.77752V4.51471ZM9.43747 7.20058C9.43747 5.72935 8.26544 4.51471 6.79286 4.51471V5.77752C7.54399 5.77752 8.17467 6.4025 8.17467 7.20058H9.43747ZM6.7842 8.18032C7.34708 8.18032 7.78164 7.71825 7.78164 7.17537H6.51884C6.51884 7.0451 6.62563 6.91751 6.7842 6.91751V8.18032ZM5.78676 7.17537C5.78676 7.71825 6.22132 8.18032 6.7842 8.18032V6.91751C6.94277 6.91751 7.04957 7.0451 7.04957 7.17537H5.78676ZM6.7842 6.17044C6.22132 6.17044 5.78676 6.63249 5.78676 7.17537H7.04957C7.04957 7.30565 6.94277 7.43323 6.7842 7.43323V6.17044ZM7.78164 7.17537C7.78164 6.63249 7.34708 6.17044 6.7842 6.17044V7.43323C6.62563 7.43323 6.51884 7.30565 6.51884 7.17537H7.78164ZM18.9307 7.20058C18.9307 7.99866 18.3001 8.62365 17.549 8.62365V9.88646C19.0215 9.88646 20.1935 8.67182 20.1935 7.20058H18.9307ZM17.549 5.77752C18.3001 5.77752 18.9307 6.4025 18.9307 7.20058H20.1935C20.1935 5.72935 19.0215 4.51471 17.549 4.51471V5.77752ZM16.1671 7.20058C16.1671 6.4025 16.7977 5.77752 17.549 5.77752V4.51471C16.0763 4.51471 14.9043 5.72935 14.9043 7.20058H16.1671ZM17.549 8.62365C16.7977 8.62365 16.1671 7.99866 16.1671 7.20058H14.9043C14.9043 8.67182 16.0763 9.88646 17.549 9.88646V8.62365ZM17.2705 7.17537C17.2705 7.0451 17.3774 6.91751 17.5359 6.91751V8.18032C18.0988 8.18032 18.5333 7.71826 18.5333 7.17537H17.2705ZM17.5359 7.43323C17.3774 7.43323 17.2705 7.30566 17.2705 7.17537H18.5333C18.5333 6.63249 18.0988 6.17044 17.5359 6.17044V7.43323ZM17.8013 7.17537C17.8013 7.30566 17.6945 7.43323 17.5359 7.43323V6.17044C16.9731 6.17044 16.5384 6.63249 16.5384 7.17537H17.8013ZM17.5359 6.91751C17.6945 6.91751 17.8013 7.0451 17.8013 7.17537H16.5384C16.5384 7.71826 16.9731 8.18032 17.5359 8.18032V6.91751Z" fill="white"/>
</g>
</g>
</svg>
